<svg width="247" height="106" viewBox="0 0 247 106" fill="none" xmlns="http://www.w3.org/2000/svg">
<path d="M58 23V62M58 74V103.5C53.1164 104.372 48.6891 103.438 45 101.775M58 74H64.5H51.5M58 74V62M0 74H10M10 74L6 67.5M10 74H20M20 74L16 79.5M20 74H39M45 74L35 94C36.6919 96.2559 40.2285 99.6249 45 101.775M45 74H39M45 74H47M45 101.775L51.5 74M51.5 74H47M39 74C34.011 72.3056 26.6826 67.6765 22.3299 59.5C20.4665 55.9995 19.8557 51.8489 19.5 47C19.5 43 19.5 38 21.4985 34M47 74C40.6667 70.3333 28.6 59.2 31 44M58 62C52.5 62 41.6 58.6 42 45M62 13C52 13 42.5 23 39 28C35.6667 23 26.1 13 14.5 13" stroke="#0D0D0D" stroke-width="3"/>
<circle cx="39" cy="25.5" r="19" stroke="#0D0D0D" stroke-width="3"/>
<path d="M104.832 24.8C104.832 24.2667 105.099 24 105.632 24H108.192C108.725 24 108.992 24.2667 108.992 24.8V79.2C108.992 79.7333 108.725 80 108.192 80H105.072C104.645 80 104.352 79.7867 104.192 79.36L87.152 34.56C87.0986 34.4 87.0186 34.3467 86.912 34.4C86.8053 34.4 86.752 34.48 86.752 34.64L86.832 79.2C86.832 79.7333 86.5653 80 86.032 80H83.392C82.8586 80 82.592 79.7333 82.592 79.2V24.8C82.592 24.2667 82.8586 24 83.392 24H86.432C86.8586 24 87.152 24.2133 87.312 24.64L104.432 69.2C104.485 69.36 104.565 69.44 104.672 69.44C104.779 69.3867 104.832 69.28 104.832 69.12V24.8ZM133.334 80.64C129.441 80.64 126.268 79.4133 123.814 76.96C121.414 74.4533 120.214 71.2 120.214 67.2V36.88C120.214 32.8267 121.414 29.5733 123.814 27.12C126.214 24.6133 129.388 23.36 133.334 23.36C137.281 23.36 140.481 24.6133 142.934 27.12C145.388 29.5733 146.614 32.8267 146.614 36.88V67.2C146.614 71.2 145.388 74.4533 142.934 76.96C140.481 79.4133 137.281 80.64 133.334 80.64ZM133.334 76.88C136.001 76.88 138.161 76 139.814 74.24C141.521 72.48 142.374 70.1867 142.374 67.36V36.72C142.374 33.8933 141.521 31.6 139.814 29.84C138.161 28.0267 136.001 27.12 133.334 27.12C130.721 27.12 128.588 28.0267 126.934 29.84C125.281 31.6 124.454 33.8933 124.454 36.72V67.36C124.454 70.1867 125.281 72.48 126.934 74.24C128.588 76 130.721 76.88 133.334 76.88ZM165.034 80C164.554 80 164.261 79.76 164.154 79.28L153.674 24.88V24.72C153.674 24.24 153.914 24 154.394 24H157.194C157.727 24 158.021 24.24 158.074 24.72L166.314 70.08C166.367 70.1867 166.421 70.24 166.474 70.24C166.527 70.24 166.581 70.1867 166.634 70.08L173.594 24.72C173.647 24.24 173.914 24 174.394 24H176.874C177.354 24 177.621 24.24 177.674 24.72L185.034 70.08C185.087 70.1867 185.141 70.24 185.194 70.24C185.247 70.24 185.301 70.1867 185.354 70.08L192.874 24.72C192.981 24.24 193.247 24 193.674 24H196.474C196.741 24 196.927 24.08 197.034 24.24C197.194 24.4 197.247 24.6133 197.194 24.88L187.274 79.28C187.221 79.76 186.927 80 186.394 80H183.834C183.407 80 183.141 79.76 183.034 79.28L175.834 34C175.781 33.8933 175.727 33.84 175.674 33.84C175.621 33.84 175.567 33.8933 175.514 34L168.394 79.28C168.341 79.76 168.074 80 167.594 80H165.034ZM206.829 80C206.296 80 206.029 79.7333 206.029 79.2V24.8C206.029 24.2667 206.296 24 206.829 24H209.469C210.003 24 210.269 24.2667 210.269 24.8V75.92C210.269 76.1333 210.376 76.24 210.589 76.24H229.309C229.843 76.24 230.109 76.5067 230.109 77.04V79.2C230.109 79.7333 229.843 80 229.309 80H206.829Z" fill="#0D0D0D"/>
</svg>
