<svg width="122" height="21" viewBox="0 0 122 21" fill="none" xmlns="http://www.w3.org/2000/svg">
<path d="M73.3293 4.09753C68.2073 4.09753 63.3415 9.21949 61.5488 11.7805C59.8415 9.21949 54.9415 4.09753 49 4.09753" stroke="#F05D5E" stroke-width="1.53659"/>
<circle cx="61.5488" cy="10.5" r="9.73171" stroke="#F05D5E" stroke-width="1.53659"/>
<path d="M93 9.85313H100.196M111.5 9.85313H108.027H104.554M100.196 9.85313L104.554 14.0087H109.419M100.196 9.85313L104.554 6.00167H114.284C126.447 9.16392 119.352 12.6573 114.284 14.0087H109.419M100.196 9.85313H104.554M104.554 9.85313L109.419 14.0087" stroke="#F05D5E" stroke-width="1.54"/>
<path d="M29 10.1572H21.8038M10.5 10.1572H17.4456M21.8038 10.1572L17.4456 6.00171H12.5806M21.8038 10.1572L17.4456 14.0087H7.71556C-4.44697 10.8465 2.64784 7.3531 7.71556 6.00171H12.5806M21.8038 10.1572H17.4456M17.4456 10.1572L12.5806 6.00171" stroke="#F05D5E" stroke-width="1.54"/>
</svg>
