<svg width="29" height="29" viewBox="0 0 29 29" fill="none" xmlns="http://www.w3.org/2000/svg">
<path d="M15.5015 0.28946C15.1993 0.263111 14.895 0.299881 14.6078 0.397434C14.3207 0.494986 14.0569 0.65119 13.8333 0.856126C13.6098 1.06106 13.4312 1.31025 13.3091 1.58787C13.187 1.86549 13.1239 2.16547 13.1239 2.46876V8.02911C13.1202 8.54506 13.3005 9.04545 13.6325 9.44038C13.9646 9.83531 14.4265 10.0989 14.9355 10.1838C15.7486 10.3202 16.5067 10.6837 17.1222 11.2322C17.7378 11.7807 18.1858 12.4921 18.4147 13.2842C18.6435 14.0763 18.6439 14.917 18.4157 15.7093C18.1875 16.5016 17.7401 17.2133 17.125 17.7624C16.5099 18.3114 15.7521 18.6755 14.9391 18.8126C14.126 18.9497 13.2908 18.8542 12.5297 18.5373C11.7685 18.2203 11.1124 17.6947 10.637 17.021C10.1616 16.3473 9.88627 15.5531 9.8427 14.7297C9.78664 13.6059 10.0163 12.6789 10.5263 11.9598C10.826 11.5417 10.9673 11.0307 10.925 10.518C10.8827 10.0053 10.6595 9.52441 10.2952 9.16114L6.51906 5.2961C6.30382 5.08085 6.04602 4.91289 5.76215 4.80296C5.47828 4.69304 5.17459 4.64357 4.87051 4.65773C4.56643 4.67189 4.26866 4.74935 3.99623 4.88517C3.7238 5.02099 3.48272 5.21217 3.2884 5.44649C1.00926 8.17811 -0.158481 11.6674 0.0173176 15.2206C0.193116 18.7738 1.69958 22.1307 4.23723 24.624C6.89066 27.2566 10.4799 28.7292 14.2177 28.7188H14.4214C18.119 28.6558 21.6475 27.1588 24.2624 24.5437C26.8772 21.9286 28.3739 18.4 28.4364 14.7023C28.539 7.27852 22.857 0.948444 15.5015 0.28946ZM4.96457 6.83555L8.73938 10.6897V10.6979C8.17906 11.5019 7.82719 12.4326 7.71535 13.4063H2.23566C2.45471 10.9892 3.40682 8.69666 4.96457 6.83555ZM2.23703 15.5938H7.7468C7.97362 16.9376 8.61322 18.1775 9.5768 19.1414C10.5404 20.1052 11.7801 20.7451 13.1239 20.9723V26.482C10.3226 26.2261 7.69956 24.9967 5.71061 23.0075C3.72166 21.0183 2.4926 18.3951 2.23703 15.5938ZM22.7134 22.9957C20.7323 24.9907 18.1114 26.2236 15.3114 26.4779V20.9723C16.5789 20.7613 17.7555 20.1794 18.6925 19.3002C19.5883 18.4656 20.2327 17.3971 20.553 16.2154C20.8733 15.0337 20.8566 13.786 20.5049 12.6133C20.1531 11.4406 19.4804 10.3897 18.5626 9.57934C17.6448 8.76899 16.5187 8.23154 15.3114 8.02774V2.46876C21.5349 3.02657 26.3405 8.38594 26.2489 14.6709C26.206 17.8017 24.9365 20.7908 22.7134 22.9957Z" fill="white"/>
</svg>
