<svg width="200" height="171" viewBox="0 0 200 171" fill="none" xmlns="http://www.w3.org/2000/svg">
<path fill-rule="evenodd" clip-rule="evenodd" d="M168.775 0.397462C168.16 0.581343 167.303 1.04944 166.869 1.4375C165.317 2.82695 138.203 34.4473 137.533 35.6494C136.68 37.1809 136.667 39.4211 137.446 51.4904C137.77 56.5149 137.956 60.7043 137.86 60.8004C137.764 60.8964 130.728 60.586 122.225 60.1109C113.721 59.6354 106.279 59.368 105.685 59.5167C105.092 59.6655 103.811 60.6208 102.838 61.6401L101.068 63.4934L96.9624 63.2135C94.7041 63.0596 90.9653 62.9152 88.6539 62.8926L84.4513 62.8512L82.9345 64.2191L81.4176 65.5875L53.1162 43.0335C37.5503 30.6288 24.1825 19.9993 23.4094 19.4125C21.9113 18.2748 20.5075 18.0707 19.5095 18.8456C19.1724 19.1072 15.0027 24.1879 10.2433 30.1365C0.864937 41.8576 0.539198 42.4342 1.5872 45.4598C2.05567 46.8122 3.20377 47.8991 9.5641 53.0091C13.6505 56.292 17.4909 59.2458 18.0982 59.5729C19.4904 60.3233 21.8354 60.369 23.2983 59.6745C23.9639 59.3582 27.5005 55.3136 31.9568 49.7715C36.1003 44.6189 39.6905 40.4029 39.9349 40.4029C40.7111 40.4029 77.7715 70.0522 77.6073 70.5417C77.4141 71.1172 70.2545 80.3616 69.9757 80.3951C69.8654 80.4084 64.51 77.4265 58.0742 73.7684C51.6388 70.11 45.7016 66.9664 44.8804 66.7822C43.2142 66.4085 41.4666 66.7013 39.5994 67.6676C38.5146 68.229 31.96 75.9957 28.2126 81.1603C26.7407 83.1889 26.3328 85.3857 26.9917 87.7347C27.4133 89.2378 28.9567 91.0934 37.0279 99.799C43.2572 106.517 46.4649 110.256 46.2745 110.576C46.1146 110.846 36.9309 122.609 25.8671 136.718L5.75064 162.369L3.63587 162.807C2.44084 163.055 1.18716 163.604 0.752317 164.07C-0.640581 165.563 -0.0219496 167.85 1.97042 168.573C2.66061 168.823 7.30582 168.028 19.1447 165.634C33.1202 162.809 36.1058 162.323 40.6521 162.135C47.398 161.857 48.8483 162.095 65.0313 166.136C87.7779 171.815 90.4124 171.734 113.191 164.64C123.996 161.275 126.524 160.771 132.743 160.744C138.876 160.718 142.88 161.419 149.945 163.758C156.494 165.926 161.115 166.699 167.517 166.697C176.166 166.695 184.153 164.74 191.495 160.829C198.425 157.137 199.453 156.162 198.649 154.05C198.257 153.021 196.824 151.863 195.943 151.863C195.635 151.863 193.606 152.895 191.436 154.156C186.34 157.116 181.473 159.024 176.344 160.074C172.847 160.79 171.34 160.887 166.177 160.73C160.584 160.56 155.613 159.898 155.623 159.325C155.625 159.193 160.463 152.498 166.373 144.446C172.571 136.001 177.12 129.447 177.122 128.959C177.129 127.535 176.672 126.813 175.433 126.293C174.01 125.696 172.533 126.116 171.609 127.382C161.442 141.324 150.323 156.468 149.98 156.84C149.624 157.227 148.755 157.13 145.753 156.37C138.112 154.435 128.938 154.352 121.403 156.149C119.682 156.559 114.034 158.21 108.852 159.817C103.669 161.423 98.0596 163.021 96.3856 163.366C92.0274 164.264 86.7546 164.517 82.6893 164.021C79.0447 163.577 70.3671 161.624 70.3773 161.25C70.3804 161.133 86.8206 139.721 106.911 113.668C127.001 87.6141 143.54 66.0345 143.663 65.7136C143.787 65.3923 143.888 63.5808 143.888 61.6882V58.2464L161.778 37.7064C178.996 17.9379 179.69 17.1973 180.255 17.9918C182.067 20.5431 185.87 27.9393 187.602 32.2802C198.408 59.3664 196.021 89.1835 181.076 113.799C179.722 116.028 178.703 118.163 178.698 118.777C178.687 120.383 179.992 121.482 181.741 121.336C183.039 121.229 183.372 120.943 185.068 118.484C186.105 116.981 188.343 112.94 190.041 109.504C194.717 100.045 197.653 90.6835 199.288 80.0289C200.239 73.8293 200.237 59.8275 199.284 53.2863C196.683 35.4269 190.084 20.2159 178.552 5.50004C174.516 0.350223 172.482 -0.711675 168.775 0.397462ZM173.895 9.10347L176.334 12.1069L159.817 31.0582L143.301 50.01L143.046 46.7681C142.906 44.9851 142.775 42.3339 142.753 40.8769L142.714 38.228L156.666 22.0305C164.339 13.1219 170.806 5.89318 171.037 5.96658C171.267 6.03997 172.553 7.45128 173.895 9.10347ZM28.9208 31.232C32.2544 33.8781 35.0484 36.0948 35.1298 36.1581C35.3511 36.3306 21.0717 54.0671 20.7116 54.0671C19.9627 54.0671 7.08644 43.527 7.37542 43.1506C7.5467 42.9277 10.8158 38.8304 14.6406 34.0452C20.8269 26.3047 21.6642 25.404 22.2269 25.883C22.5749 26.179 25.5871 28.5862 28.9208 31.232ZM163.402 62.5033C158.729 63.1951 155.286 66.9828 154.919 71.8348C154.713 74.5586 155.299 76.7374 156.788 78.7902C161.166 84.8247 170.158 84.4015 174.139 77.9731C175.801 75.2902 176.026 71.5451 174.699 68.6522C172.555 63.9759 168.47 61.7526 163.402 62.5033ZM117.244 65.8073C117.322 65.8772 115.783 67.9943 113.822 70.5125C111.495 73.5018 110.258 75.4308 110.258 76.0706C110.258 77.4792 111.704 78.8577 113.182 78.8577C114.675 78.8577 115.386 78.1374 120.699 71.2437L124.611 66.1676L128.091 66.3016C130.004 66.375 132.463 66.551 133.555 66.6927L135.541 66.9504L122.295 84.1282C115.01 93.576 108.92 101.306 108.761 101.306C108.304 101.306 101.655 96.3002 101.655 95.9566C101.655 95.7864 103.151 93.7341 104.979 91.3952C107.525 88.138 108.303 86.8587 108.303 85.9283C108.303 84.1848 107.058 83.0772 105.269 83.2275C103.974 83.3364 103.546 83.7226 100.594 87.4466C95.885 93.387 95.2578 94.5215 95.4999 96.6648C95.7431 98.8191 96.3703 99.5304 101.384 103.337C104.044 105.356 105.109 106.388 104.863 106.705C104.667 106.956 95.4037 118.976 84.2769 133.417C73.1502 147.857 63.8769 159.671 63.6697 159.671C63.4624 159.671 60.8823 159.069 57.9358 158.333C50.6472 156.511 47.1543 156.068 41.3165 156.222C38.5846 156.294 36.3498 156.289 36.3502 156.212C36.3502 156.134 39.2588 152.357 42.8134 147.818C46.368 143.279 49.3786 139.169 49.5041 138.684C49.781 137.615 48.7651 135.939 47.5724 135.499C45.7337 134.82 44.8183 135.729 36.0292 146.955C30.3676 154.187 27.0582 158.095 26.4806 158.231C23.6155 158.906 15.1427 160.491 15.0258 160.374C14.9488 160.298 31.0218 139.648 50.743 114.486L86.5997 68.7365L89.7281 68.7603C91.4487 68.7736 93.7664 68.8989 94.8785 69.0387L96.9006 69.2928L75.0025 97.2067C62.9584 112.559 52.74 125.624 52.2946 126.239C51.2474 127.684 51.2963 129.591 52.4033 130.486C53.4885 131.363 55.2048 131.364 56.2074 130.489C56.6376 130.113 68.3782 115.254 82.2974 97.4679L107.605 65.13L112.353 65.4052C114.964 65.5567 117.165 65.7374 117.244 65.8073ZM168.367 69.6442C169.885 71.1597 170.129 72.9857 169.084 75.0037C168.465 76.1975 166.507 77.2961 164.997 77.2961C162.674 77.2961 160.702 75.0466 160.702 72.3965C160.702 71.2964 161.006 70.669 162.032 69.6442C163.167 68.5112 163.631 68.3168 165.199 68.3168C166.768 68.3168 167.232 68.5112 168.367 69.6442ZM46.9455 74.1944C49.3735 75.61 49.6081 75.8504 49.1643 76.4704C48.8918 76.8518 46.12 80.3748 43.0054 84.2988L37.3423 91.4342L34.856 88.8142C33.1131 86.9773 32.4276 85.9752 32.5622 85.4606C32.6681 85.0573 34.9272 82.0028 37.5832 78.6731C41.3176 73.9906 42.6178 72.6179 43.3213 72.6148C43.8215 72.6128 45.4521 73.3238 46.9455 74.1944ZM60.4346 81.8412C63.3314 83.4821 65.7911 84.9695 65.9006 85.1464C66.0766 85.4306 51.2071 104.729 50.4548 105.194C50.2131 105.343 44.9923 99.9485 42.0938 96.5547C41.3927 95.7337 41.4592 95.6314 48.0952 87.2912C51.7859 82.6528 54.8868 78.8577 54.987 78.8577C55.0867 78.8577 57.5381 80.2003 60.4346 81.8412ZM144.115 88.2087C137.501 90.8701 135.464 99.3789 140.121 104.887C142.788 108.041 148.276 109.092 152.295 107.219C162.056 102.672 159.193 88.2673 148.392 87.5837C146.678 87.4751 145.515 87.6453 144.115 88.2087ZM149.957 93.9183C151.297 94.5531 152.491 96.4614 152.491 97.9684C152.491 99.1314 151.492 100.944 150.45 101.673C149.971 102.008 148.809 102.282 147.867 102.282C146.442 102.282 145.933 102.06 144.826 100.955C143.74 99.8701 143.497 99.3297 143.497 98.0008C143.497 95.9645 143.991 95.0283 145.575 94.064C147.087 93.1434 148.241 93.1051 149.957 93.9183ZM87.8092 103.105C85.6284 105.527 85.3906 107.202 87.0435 108.5C88.589 109.714 89.8074 109.53 91.3814 107.845C93.2545 105.841 93.8461 104.385 93.3569 102.984C92.9202 101.733 91.9953 101.111 90.5719 101.111C89.904 101.111 89.05 101.727 87.8092 103.105ZM78.807 114.014C76.5413 116.518 76.2769 117.873 77.7258 119.557C78.4101 120.353 80.4885 120.462 81.4219 119.753C82.8168 118.691 84.449 116.189 84.449 115.111C84.449 113.591 83.2004 112.432 81.5615 112.432C80.5112 112.432 79.9434 112.759 78.807 114.014ZM126.486 113.552C122.631 115.307 120.31 118.756 120.278 122.778C120.254 125.871 120.967 127.807 122.903 129.903C125.315 132.515 127.093 133.301 130.592 133.301C132.856 133.301 133.894 133.106 135.142 132.447C138.935 130.443 140.954 127.119 140.897 122.973C140.838 118.747 138.764 115.448 135.092 113.741C132.615 112.589 128.787 112.505 126.486 113.552ZM133.357 119.479C134.846 120.538 135.579 122.884 134.918 124.476C134.07 126.521 132.708 127.463 130.602 127.463C128.445 127.463 127.292 126.673 126.41 124.592C125.686 122.884 126.055 121.317 127.525 119.849C128.481 118.894 129.022 118.679 130.464 118.679C131.619 118.679 132.621 118.957 133.357 119.479ZM69.7254 125.119C68.799 126.085 67.927 127.328 67.7878 127.881C67.2622 129.972 69.2073 131.939 71.286 131.418C71.8206 131.284 72.9914 130.255 73.8877 129.131C75.2372 127.439 75.4776 126.886 75.2892 125.909C75.164 125.261 74.6905 124.423 74.2373 124.047C72.8404 122.889 71.5778 123.189 69.7254 125.119ZM60.2371 136.54C57.6257 139.582 58.2311 142.494 61.4755 142.494C62.6678 142.494 63.1218 142.212 64.4729 140.639C67.0843 137.597 66.4789 134.686 63.2345 134.686C62.0422 134.686 61.5882 134.967 60.2371 136.54ZM51.3299 147.471C50.3887 148.491 49.51 149.753 49.3766 150.275C48.8089 152.502 51.4617 154.531 53.4705 153.405C54.9138 152.596 57.0759 149.653 57.0759 148.497C57.0759 147.212 55.4265 145.617 54.0985 145.617C53.3379 145.617 52.5609 146.137 51.3299 147.471Z" fill="#A8A8A8"/>
</svg>
