<svg width="360" height="274" viewBox="0 0 360 274" fill="none" xmlns="http://www.w3.org/2000/svg">
<g filter="url(#filter0_d_495_265)">
<path fill-rule="evenodd" clip-rule="evenodd" d="M0 48.9585L14.9792 37.4585C29.9584 28.8645 32.5416 23.297 62.5 19C92.4584 14.703 129.5 69 175.5 69C221.5 69 225.292 53.5109 255.5 31.4118C285.458 9.31283 315 9.91185 333 23.9118L360 43.4584V150.261H345.021C330.042 150.261 300.083 150.261 270.125 150.261C239.917 150.261 209.958 150.261 180 150.261C150.042 150.261 120.083 150.261 90.1248 150.261C59.9168 150.261 29.9584 150.261 14.9792 150.261H0L0 48.9585Z" fill="#68419C"/>
</g>
<g filter="url(#filter1_d_495_265)">
<path d="M126 60.4584C58.4 12.4584 20.5 40.4584 -0.5 60.4584V277.5H360.5V60.4584C322.1 54.4584 291.794 61.4493 258 80.4584C234 93.9584 193.6 108.458 126 60.4584Z" fill="url(#paint0_linear_495_265)"/>
</g>
<path d="M113.633 248.157C110.182 248.157 106.903 251.608 105.695 253.334C104.545 251.608 101.243 248.157 97.2397 248.157" stroke="#F5F5F5" stroke-width="1.67532"/>
<circle cx="105.696" cy="252.471" r="6.23723" stroke="#F5F5F5" stroke-width="1.67532"/>
<path d="M121.042 257.026H120.011L122.993 248.903H124.009L126.991 257.026H125.96L123.533 250.188H123.469L121.042 257.026ZM121.423 253.853H125.579V254.726H121.423V253.853ZM129.066 248.903V257.026H128.13V248.903H129.066ZM131.716 248.903V257.026H130.78V248.903H131.716ZM136.699 257.026V248.903H139.443C140.078 248.903 140.599 249.012 141.006 249.228C141.413 249.443 141.714 249.737 141.91 250.113C142.106 250.488 142.204 250.915 142.204 251.394C142.204 251.873 142.106 252.297 141.91 252.667C141.714 253.037 141.414 253.328 141.01 253.54C140.605 253.749 140.088 253.853 139.459 253.853H137.238V252.965H139.427C139.861 252.965 140.21 252.901 140.474 252.774C140.741 252.647 140.934 252.467 141.053 252.235C141.175 251.999 141.236 251.719 141.236 251.394C141.236 251.069 141.175 250.785 141.053 250.541C140.932 250.298 140.737 250.11 140.47 249.978C140.203 249.843 139.85 249.776 139.411 249.776H137.682V257.026H136.699ZM140.522 253.377L142.521 257.026H141.379L139.411 253.377H140.522ZM143.716 257.026V250.934H144.652V257.026H143.716ZM144.192 249.919C144.009 249.919 143.852 249.856 143.72 249.732C143.59 249.608 143.525 249.458 143.525 249.284C143.525 249.109 143.59 248.96 143.72 248.836C143.852 248.711 144.009 248.649 144.192 248.649C144.374 248.649 144.53 248.711 144.66 248.836C144.792 248.96 144.858 249.109 144.858 249.284C144.858 249.458 144.792 249.608 144.66 249.732C144.53 249.856 144.374 249.919 144.192 249.919ZM148.825 259.437C148.373 259.437 147.984 259.379 147.659 259.263C147.334 259.149 147.063 258.999 146.846 258.811C146.632 258.626 146.461 258.427 146.334 258.216L147.08 257.692C147.165 257.803 147.272 257.93 147.401 258.073C147.531 258.218 147.708 258.344 147.933 258.45C148.16 258.558 148.458 258.612 148.825 258.612C149.317 258.612 149.723 258.493 150.043 258.256C150.363 258.018 150.523 257.645 150.523 257.137V255.9H150.443C150.375 256.011 150.277 256.148 150.15 256.312C150.026 256.473 149.846 256.617 149.611 256.744C149.378 256.869 149.063 256.931 148.667 256.931C148.175 256.931 147.733 256.814 147.342 256.582C146.953 256.349 146.645 256.011 146.418 255.566C146.193 255.122 146.081 254.583 146.081 253.948C146.081 253.324 146.19 252.781 146.41 252.318C146.629 251.853 146.935 251.493 147.326 251.239C147.717 250.983 148.169 250.855 148.682 250.855C149.079 250.855 149.394 250.921 149.626 251.053C149.862 251.182 150.042 251.331 150.166 251.497C150.293 251.661 150.391 251.796 150.459 251.902H150.555V250.934H151.459V257.2C151.459 257.724 151.34 258.15 151.102 258.478C150.867 258.808 150.549 259.05 150.15 259.203C149.753 259.359 149.312 259.437 148.825 259.437ZM148.794 256.09C149.169 256.09 149.486 256.004 149.745 255.832C150.005 255.66 150.202 255.413 150.336 255.09C150.471 254.768 150.539 254.382 150.539 253.932C150.539 253.493 150.473 253.106 150.34 252.77C150.208 252.434 150.012 252.171 149.753 251.981C149.494 251.791 149.174 251.695 148.794 251.695C148.397 251.695 148.066 251.796 147.802 251.997C147.54 252.198 147.343 252.467 147.211 252.806C147.081 253.144 147.017 253.52 147.017 253.932C147.017 254.355 147.083 254.73 147.215 255.055C147.35 255.377 147.548 255.631 147.81 255.816C148.074 255.999 148.402 256.09 148.794 256.09ZM154.108 253.361V257.026H153.172V248.903H154.108V251.886H154.188C154.33 251.571 154.545 251.321 154.83 251.136C155.118 250.948 155.502 250.855 155.98 250.855C156.395 250.855 156.759 250.938 157.071 251.104C157.383 251.268 157.625 251.521 157.797 251.862C157.971 252.2 158.059 252.631 158.059 253.155V257.026H157.123V253.218C157.123 252.735 156.997 252.36 156.746 252.096C156.497 251.829 156.152 251.695 155.711 251.695C155.404 251.695 155.129 251.76 154.886 251.89C154.645 252.019 154.455 252.208 154.314 252.457C154.177 252.705 154.108 253.007 154.108 253.361ZM162.42 250.934V251.727H159.263V250.934H162.42ZM160.183 249.474H161.119V255.281C161.119 255.545 161.158 255.744 161.235 255.876C161.314 256.005 161.414 256.093 161.536 256.138C161.66 256.18 161.791 256.201 161.929 256.201C162.032 256.201 162.116 256.196 162.182 256.185C162.249 256.172 162.301 256.161 162.341 256.153L162.531 256.994C162.468 257.018 162.379 257.042 162.266 257.066C162.152 257.092 162.008 257.105 161.833 257.105C161.569 257.105 161.31 257.048 161.056 256.935C160.805 256.821 160.596 256.648 160.429 256.415C160.265 256.183 160.183 255.889 160.183 255.535V249.474ZM168.035 252.298L167.194 252.536C167.141 252.396 167.063 252.26 166.96 252.128C166.859 251.993 166.722 251.882 166.547 251.795C166.373 251.707 166.149 251.664 165.877 251.664C165.504 251.664 165.193 251.75 164.945 251.921C164.699 252.091 164.576 252.306 164.576 252.568C164.576 252.801 164.661 252.984 164.83 253.119C164.999 253.254 165.264 253.367 165.623 253.456L166.527 253.679C167.072 253.811 167.478 254.013 167.745 254.285C168.012 254.555 168.146 254.903 168.146 255.328C168.146 255.677 168.045 255.989 167.844 256.264C167.646 256.539 167.368 256.756 167.011 256.915C166.654 257.074 166.239 257.153 165.766 257.153C165.145 257.153 164.63 257.018 164.223 256.748C163.816 256.479 163.558 256.085 163.45 255.566L164.338 255.344C164.423 255.672 164.583 255.918 164.818 256.082C165.056 256.246 165.367 256.328 165.75 256.328C166.186 256.328 166.533 256.235 166.789 256.05C167.048 255.863 167.178 255.638 167.178 255.376C167.178 255.165 167.104 254.987 166.956 254.845C166.808 254.699 166.58 254.591 166.274 254.519L165.258 254.281C164.7 254.149 164.29 253.944 164.029 253.667C163.77 253.386 163.64 253.036 163.64 252.616C163.64 252.272 163.737 251.968 163.93 251.703C164.125 251.439 164.391 251.231 164.727 251.081C165.065 250.93 165.449 250.855 165.877 250.855C166.48 250.855 166.953 250.987 167.297 251.251C167.643 251.516 167.889 251.865 168.035 252.298ZM172.823 257.026V248.903H175.567C176.202 248.903 176.723 249.012 177.13 249.228C177.537 249.443 177.839 249.737 178.034 250.113C178.23 250.488 178.328 250.915 178.328 251.394C178.328 251.873 178.23 252.297 178.034 252.667C177.839 253.037 177.539 253.328 177.134 253.54C176.729 253.749 176.213 253.853 175.583 253.853H173.362V252.965H175.552C175.985 252.965 176.334 252.901 176.599 252.774C176.866 252.647 177.059 252.467 177.178 252.235C177.299 251.999 177.36 251.719 177.36 251.394C177.36 251.069 177.299 250.785 177.178 250.541C177.056 250.298 176.862 250.11 176.595 249.978C176.328 249.843 175.975 249.776 175.536 249.776H173.806V257.026H172.823ZM176.646 253.377L178.645 257.026H177.503L175.536 253.377H176.646ZM182.329 257.153C181.742 257.153 181.235 257.023 180.81 256.764C180.387 256.502 180.06 256.138 179.83 255.67C179.603 255.199 179.489 254.652 179.489 254.028C179.489 253.404 179.603 252.854 179.83 252.378C180.06 251.899 180.38 251.526 180.79 251.259C181.202 250.989 181.684 250.855 182.234 250.855C182.551 250.855 182.864 250.907 183.174 251.013C183.483 251.119 183.765 251.291 184.018 251.529C184.272 251.764 184.474 252.076 184.625 252.465C184.776 252.854 184.851 253.332 184.851 253.901V254.297H180.155V253.488H183.899C183.899 253.144 183.831 252.838 183.693 252.568C183.558 252.298 183.365 252.085 183.114 251.929C182.866 251.773 182.572 251.695 182.234 251.695C181.861 251.695 181.538 251.788 181.266 251.973C180.996 252.155 180.789 252.393 180.643 252.687C180.498 252.98 180.425 253.295 180.425 253.631V254.17C180.425 254.63 180.504 255.02 180.663 255.34C180.824 255.658 181.048 255.9 181.333 256.066C181.619 256.23 181.951 256.312 182.329 256.312C182.575 256.312 182.797 256.278 182.995 256.209C183.196 256.138 183.369 256.032 183.515 255.892C183.66 255.749 183.772 255.572 183.852 255.36L184.756 255.614C184.661 255.921 184.501 256.19 184.276 256.423C184.051 256.653 183.774 256.833 183.443 256.963C183.113 257.089 182.741 257.153 182.329 257.153ZM190.59 252.298L189.75 252.536C189.697 252.396 189.619 252.26 189.516 252.128C189.415 251.993 189.278 251.882 189.103 251.795C188.929 251.707 188.705 251.664 188.433 251.664C188.06 251.664 187.749 251.75 187.501 251.921C187.255 252.091 187.132 252.306 187.132 252.568C187.132 252.801 187.216 252.984 187.386 253.119C187.555 253.254 187.819 253.367 188.179 253.456L189.083 253.679C189.628 253.811 190.034 254.013 190.301 254.285C190.568 254.555 190.701 254.903 190.701 255.328C190.701 255.677 190.601 255.989 190.4 256.264C190.202 256.539 189.924 256.756 189.567 256.915C189.21 257.074 188.795 257.153 188.322 257.153C187.7 257.153 187.186 257.018 186.779 256.748C186.372 256.479 186.114 256.085 186.005 255.566L186.894 255.344C186.978 255.672 187.138 255.918 187.374 256.082C187.612 256.246 187.922 256.328 188.306 256.328C188.742 256.328 189.088 256.235 189.345 256.05C189.604 255.863 189.734 255.638 189.734 255.376C189.734 255.165 189.66 254.987 189.512 254.845C189.363 254.699 189.136 254.591 188.829 254.519L187.814 254.281C187.256 254.149 186.846 253.944 186.584 253.667C186.325 253.386 186.196 253.036 186.196 252.616C186.196 252.272 186.292 251.968 186.485 251.703C186.681 251.439 186.947 251.231 187.283 251.081C187.621 250.93 188.004 250.855 188.433 250.855C189.036 250.855 189.509 250.987 189.853 251.251C190.199 251.516 190.445 251.865 190.59 252.298ZM194.665 257.153C194.078 257.153 193.571 257.023 193.146 256.764C192.723 256.502 192.396 256.138 192.166 255.67C191.939 255.199 191.825 254.652 191.825 254.028C191.825 253.404 191.939 252.854 192.166 252.378C192.396 251.899 192.716 251.526 193.126 251.259C193.538 250.989 194.019 250.855 194.569 250.855C194.887 250.855 195.2 250.907 195.509 251.013C195.819 251.119 196.1 251.291 196.354 251.529C196.608 251.764 196.81 252.076 196.961 252.465C197.112 252.854 197.187 253.332 197.187 253.901V254.297H192.491V253.488H196.235C196.235 253.144 196.167 252.838 196.029 252.568C195.894 252.298 195.701 252.085 195.45 251.929C195.201 251.773 194.908 251.695 194.569 251.695C194.197 251.695 193.874 251.788 193.602 251.973C193.332 252.155 193.124 252.393 192.979 252.687C192.834 252.98 192.761 253.295 192.761 253.631V254.17C192.761 254.63 192.84 255.02 192.999 255.34C193.16 255.658 193.384 255.9 193.669 256.066C193.955 256.23 194.287 256.312 194.665 256.312C194.911 256.312 195.133 256.278 195.331 256.209C195.532 256.138 195.705 256.032 195.851 255.892C195.996 255.749 196.108 255.572 196.188 255.36L197.092 255.614C196.997 255.921 196.837 256.19 196.612 256.423C196.387 256.653 196.11 256.833 195.779 256.963C195.449 257.089 195.077 257.153 194.665 257.153ZM198.611 257.026V250.934H199.515V251.854H199.579C199.69 251.553 199.891 251.308 200.182 251.12C200.472 250.933 200.8 250.839 201.165 250.839C201.234 250.839 201.32 250.84 201.423 250.843C201.526 250.845 201.604 250.849 201.657 250.855V251.806C201.625 251.799 201.553 251.787 201.439 251.771C201.328 251.752 201.21 251.743 201.086 251.743C200.79 251.743 200.525 251.805 200.293 251.929C200.063 252.051 199.88 252.22 199.745 252.437C199.613 252.651 199.547 252.896 199.547 253.171V257.026H198.611ZM207.934 250.934L205.681 257.026H204.729L202.476 250.934H203.491L205.173 255.789H205.237L206.918 250.934H207.934ZM211.505 257.153C210.918 257.153 210.412 257.023 209.986 256.764C209.563 256.502 209.236 256.138 209.006 255.67C208.779 255.199 208.665 254.652 208.665 254.028C208.665 253.404 208.779 252.854 209.006 252.378C209.236 251.899 209.556 251.526 209.966 251.259C210.379 250.989 210.86 250.855 211.41 250.855C211.727 250.855 212.041 250.907 212.35 251.013C212.659 251.119 212.941 251.291 213.195 251.529C213.449 251.764 213.651 252.076 213.802 252.465C213.952 252.854 214.028 253.332 214.028 253.901V254.297H209.332V253.488H213.076C213.076 253.144 213.007 252.838 212.87 252.568C212.735 252.298 212.542 252.085 212.29 251.929C212.042 251.773 211.748 251.695 211.41 251.695C211.037 251.695 210.715 251.788 210.442 251.973C210.173 252.155 209.965 252.393 209.82 252.687C209.674 252.98 209.601 253.295 209.601 253.631V254.17C209.601 254.63 209.681 255.02 209.839 255.34C210.001 255.658 210.224 255.9 210.51 256.066C210.795 256.23 211.127 256.312 211.505 256.312C211.751 256.312 211.973 256.278 212.171 256.209C212.372 256.138 212.546 256.032 212.691 255.892C212.836 255.749 212.949 255.572 213.028 255.36L213.932 255.614C213.837 255.921 213.677 256.19 213.453 256.423C213.228 256.653 212.95 256.833 212.62 256.963C212.289 257.089 211.918 257.153 211.505 257.153ZM217.752 257.153C217.244 257.153 216.796 257.025 216.407 256.768C216.019 256.509 215.715 256.144 215.495 255.674C215.276 255.2 215.166 254.641 215.166 253.996C215.166 253.356 215.276 252.801 215.495 252.33C215.715 251.859 216.02 251.496 216.411 251.239C216.803 250.983 217.255 250.855 217.768 250.855C218.164 250.855 218.478 250.921 218.708 251.053C218.94 251.182 219.118 251.331 219.239 251.497C219.364 251.661 219.46 251.796 219.529 251.902H219.608V248.903H220.544V257.026H219.64V256.09H219.529C219.46 256.201 219.362 256.341 219.235 256.51C219.108 256.677 218.927 256.826 218.692 256.959C218.457 257.088 218.143 257.153 217.752 257.153ZM217.879 256.312C218.254 256.312 218.572 256.214 218.831 256.019C219.09 255.82 219.287 255.547 219.422 255.198C219.557 254.846 219.624 254.44 219.624 253.98C219.624 253.525 219.558 253.127 219.426 252.786C219.293 252.442 219.098 252.175 218.839 251.985C218.58 251.792 218.26 251.695 217.879 251.695C217.482 251.695 217.152 251.797 216.887 252.001C216.626 252.202 216.429 252.475 216.296 252.822C216.167 253.166 216.102 253.552 216.102 253.98C216.102 254.414 216.168 254.808 216.3 255.162C216.435 255.514 216.633 255.794 216.895 256.003C217.16 256.209 217.488 256.312 217.879 256.312ZM225.514 257.026V256.312L228.195 253.377C228.51 253.033 228.769 252.735 228.972 252.481C229.176 252.224 229.327 251.984 229.424 251.759C229.525 251.531 229.575 251.293 229.575 251.045C229.575 250.759 229.506 250.512 229.369 250.303C229.234 250.094 229.049 249.933 228.814 249.819C228.578 249.706 228.314 249.649 228.02 249.649C227.708 249.649 227.436 249.714 227.203 249.843C226.973 249.97 226.795 250.149 226.668 250.379C226.544 250.609 226.482 250.878 226.482 251.188H225.546C225.546 250.712 225.655 250.294 225.875 249.934C226.094 249.575 226.393 249.295 226.771 249.094C227.152 248.893 227.579 248.792 228.052 248.792C228.528 248.792 228.95 248.893 229.317 249.094C229.685 249.295 229.973 249.566 230.182 249.907C230.391 250.248 230.495 250.627 230.495 251.045C230.495 251.344 230.441 251.636 230.333 251.921C230.227 252.204 230.042 252.52 229.777 252.869C229.516 253.216 229.152 253.639 228.687 254.139L226.862 256.09V256.153H230.638V257.026H225.514ZM234.926 257.137C234.328 257.137 233.819 256.974 233.399 256.649C232.978 256.321 232.657 255.847 232.435 255.225C232.213 254.601 232.102 253.848 232.102 252.965C232.102 252.087 232.213 251.337 232.435 250.716C232.66 250.092 232.982 249.616 233.403 249.288C233.826 248.957 234.333 248.792 234.926 248.792C235.518 248.792 236.024 248.957 236.445 249.288C236.868 249.616 237.19 250.092 237.412 250.716C237.637 251.337 237.75 252.087 237.75 252.965C237.75 253.848 237.638 254.601 237.416 255.225C237.194 255.847 236.873 256.321 236.453 256.649C236.032 256.974 235.523 257.137 234.926 257.137ZM234.926 256.264C235.518 256.264 235.978 255.979 236.306 255.408C236.634 254.837 236.798 254.022 236.798 252.965C236.798 252.261 236.722 251.662 236.572 251.168C236.423 250.673 236.209 250.297 235.929 250.038C235.651 249.778 235.317 249.649 234.926 249.649C234.339 249.649 233.88 249.938 233.549 250.517C233.219 251.094 233.054 251.91 233.054 252.965C233.054 253.668 233.128 254.266 233.276 254.757C233.424 255.249 233.637 255.623 233.914 255.88C234.194 256.136 234.532 256.264 234.926 256.264ZM239.257 257.026V256.312L241.938 253.377C242.252 253.033 242.512 252.735 242.715 252.481C242.919 252.224 243.07 251.984 243.167 251.759C243.268 251.531 243.318 251.293 243.318 251.045C243.318 250.759 243.249 250.512 243.112 250.303C242.977 250.094 242.792 249.933 242.557 249.819C242.321 249.706 242.057 249.649 241.763 249.649C241.451 249.649 241.179 249.714 240.946 249.843C240.716 249.97 240.538 250.149 240.411 250.379C240.287 250.609 240.224 250.878 240.224 251.188H239.288C239.288 250.712 239.398 250.294 239.618 249.934C239.837 249.575 240.136 249.295 240.514 249.094C240.895 248.893 241.322 248.792 241.795 248.792C242.271 248.792 242.693 248.893 243.06 249.094C243.428 249.295 243.716 249.566 243.925 249.907C244.134 250.248 244.238 250.627 244.238 251.045C244.238 251.344 244.184 251.636 244.076 251.921C243.97 252.204 243.785 252.52 243.52 252.869C243.259 253.216 242.895 253.639 242.43 254.139L240.605 256.09V256.153H244.381V257.026H239.257ZM248.764 257.137C248.24 257.137 247.773 257.047 247.364 256.867C246.956 256.688 246.633 256.438 246.392 256.118C246.154 255.795 246.024 255.421 246.003 254.995H247.003C247.024 255.257 247.114 255.483 247.272 255.674C247.431 255.861 247.639 256.007 247.895 256.11C248.152 256.213 248.436 256.264 248.748 256.264C249.097 256.264 249.406 256.204 249.676 256.082C249.946 255.96 250.157 255.791 250.31 255.574C250.464 255.358 250.541 255.106 250.541 254.821C250.541 254.522 250.467 254.259 250.318 254.032C250.17 253.801 249.954 253.622 249.668 253.492C249.382 253.363 249.033 253.298 248.621 253.298H247.97V252.425H248.621C248.943 252.425 249.226 252.367 249.47 252.251C249.716 252.134 249.907 251.97 250.045 251.759C250.185 251.547 250.255 251.299 250.255 251.013C250.255 250.738 250.194 250.499 250.073 250.295C249.951 250.092 249.779 249.933 249.557 249.819C249.337 249.706 249.078 249.649 248.78 249.649C248.499 249.649 248.235 249.7 247.986 249.804C247.74 249.904 247.539 250.051 247.383 250.244C247.227 250.434 247.143 250.664 247.13 250.934H246.178C246.194 250.508 246.322 250.135 246.562 249.815C246.803 249.493 247.118 249.242 247.506 249.062C247.898 248.882 248.327 248.792 248.795 248.792C249.298 248.792 249.729 248.894 250.088 249.098C250.448 249.298 250.724 249.564 250.917 249.895C251.11 250.225 251.207 250.582 251.207 250.966C251.207 251.423 251.087 251.813 250.846 252.136C250.608 252.458 250.284 252.682 249.874 252.806V252.869C250.387 252.954 250.788 253.172 251.076 253.524C251.364 253.873 251.508 254.305 251.508 254.821C251.508 255.262 251.388 255.659 251.147 256.011C250.909 256.36 250.584 256.635 250.172 256.836C249.759 257.037 249.29 257.137 248.764 257.137ZM258.223 252.965C258.223 252.531 258.329 252.136 258.54 251.779C258.752 251.422 259.036 251.137 259.393 250.926C259.75 250.714 260.145 250.609 260.579 250.609C260.954 250.609 261.301 250.689 261.618 250.851C261.938 251.012 262.203 251.233 262.411 251.513C262.62 251.791 262.75 252.105 262.8 252.457H261.84C261.787 252.185 261.641 251.962 261.4 251.791C261.159 251.616 260.886 251.529 260.579 251.529C260.315 251.529 260.074 251.594 259.857 251.723C259.64 251.853 259.467 252.026 259.338 252.243C259.208 252.46 259.143 252.7 259.143 252.965C259.143 253.229 259.208 253.47 259.338 253.686C259.467 253.903 259.64 254.076 259.857 254.206C260.074 254.336 260.315 254.4 260.579 254.4C260.886 254.4 261.145 254.314 261.356 254.143C261.571 253.968 261.705 253.745 261.761 253.472H262.721C262.671 253.824 262.548 254.14 262.352 254.42C262.156 254.698 261.905 254.917 261.598 255.079C261.294 255.24 260.954 255.321 260.579 255.321C260.145 255.321 259.75 255.215 259.393 255.003C259.036 254.792 258.752 254.507 258.54 254.15C258.329 253.794 258.223 253.398 258.223 252.965ZM260.539 257.153C259.963 257.153 259.421 257.044 258.913 256.828C258.408 256.611 257.963 256.311 257.577 255.927C257.193 255.541 256.892 255.096 256.672 254.591C256.455 254.086 256.348 253.544 256.351 252.965C256.354 252.386 256.463 251.843 256.68 251.338C256.9 250.833 257.201 250.389 257.585 250.006C257.968 249.62 258.412 249.318 258.917 249.102C259.422 248.885 259.963 248.776 260.539 248.776C261.118 248.776 261.66 248.885 262.165 249.102C262.673 249.318 263.117 249.62 263.498 250.006C263.882 250.389 264.182 250.833 264.398 251.338C264.615 251.843 264.725 252.386 264.728 252.965C264.73 253.544 264.623 254.086 264.406 254.591C264.19 255.096 263.889 255.541 263.506 255.927C263.123 256.311 262.677 256.611 262.169 256.828C261.662 257.044 261.118 257.153 260.539 257.153ZM260.539 256.233C260.991 256.233 261.416 256.148 261.813 255.979C262.209 255.81 262.557 255.576 262.856 255.277C263.154 254.978 263.388 254.632 263.558 254.238C263.727 253.841 263.81 253.418 263.808 252.969C263.805 252.516 263.719 252.092 263.55 251.695C263.38 251.299 263.146 250.951 262.848 250.652C262.549 250.354 262.203 250.12 261.809 249.95C261.415 249.781 260.991 249.696 260.539 249.696C260.09 249.696 259.668 249.781 259.274 249.95C258.88 250.12 258.534 250.355 258.235 250.656C257.936 250.955 257.701 251.303 257.529 251.699C257.36 252.093 257.274 252.516 257.271 252.969C257.269 253.415 257.352 253.837 257.521 254.234C257.69 254.628 257.924 254.974 258.223 255.273C258.525 255.572 258.872 255.807 259.266 255.979C259.663 256.148 260.087 256.233 260.539 256.233Z" fill="#F5F5F5"/>
<defs>
<filter id="filter0_d_495_265" x="0" y="1.90735e-06" width="374" height="150.261" filterUnits="userSpaceOnUse" color-interpolation-filters="sRGB">
<feFlood flood-opacity="0" result="BackgroundImageFix"/>
<feColorMatrix in="SourceAlpha" type="matrix" values="0 0 0 0 0 0 0 0 0 0 0 0 0 0 0 0 0 0 127 0" result="hardAlpha"/>
<feOffset dx="10" dy="-10"/>
<feGaussianBlur stdDeviation="2"/>
<feComposite in2="hardAlpha" operator="out"/>
<feColorMatrix type="matrix" values="0 0 0 0 0 0 0 0 0 0 0 0 0 0 0 0 0 0 0.25 0"/>
<feBlend mode="normal" in2="BackgroundImageFix" result="effect1_dropShadow_495_265"/>
<feBlend mode="normal" in="SourceGraphic" in2="effect1_dropShadow_495_265" result="shape"/>
</filter>
<filter id="filter1_d_495_265" x="-0.5" y="19.9551" width="375" height="257.545" filterUnits="userSpaceOnUse" color-interpolation-filters="sRGB">
<feFlood flood-opacity="0" result="BackgroundImageFix"/>
<feColorMatrix in="SourceAlpha" type="matrix" values="0 0 0 0 0 0 0 0 0 0 0 0 0 0 0 0 0 0 127 0" result="hardAlpha"/>
<feOffset dx="10" dy="-10"/>
<feGaussianBlur stdDeviation="2"/>
<feComposite in2="hardAlpha" operator="out"/>
<feColorMatrix type="matrix" values="0 0 0 0 0 0 0 0 0 0 0 0 0 0 0 0 0 0 0.25 0"/>
<feBlend mode="normal" in2="BackgroundImageFix" result="effect1_dropShadow_495_265"/>
<feBlend mode="normal" in="SourceGraphic" in2="effect1_dropShadow_495_265" result="shape"/>
</filter>
<linearGradient id="paint0_linear_495_265" x1="185" y1="186.5" x2="180" y2="322.5" gradientUnits="userSpaceOnUse">
<stop stop-color="#9747FF"/>
<stop offset="1" stop-color="#68419C"/>
</linearGradient>
</defs>
</svg>
