<svg width="1440" height="156" viewBox="0 0 1440 156" fill="none" xmlns="http://www.w3.org/2000/svg">
<g filter="url(#filter0_d_438_111)">
<path fill-rule="evenodd" clip-rule="evenodd" d="M-36 117.867L-0.136669 102.812C34.49 87.7566 104.98 57.646 175.47 36.5685C247.197 15.4911 317.687 3.44681 388.177 6.45787C458.667 9.46893 529.157 27.5353 599.647 48.6128C670.137 69.6902 741.863 93.7787 812.353 105.823C882.843 117.867 953.333 117.867 1023.82 96.7898C1094.31 75.7123 1164.8 33.5574 1236.53 33.5574C1307.02 33.5574 1377.51 75.7123 1412.14 96.7898L1448 117.867V154L1412.14 154C1377.51 154 1307.02 154 1236.53 154C1164.8 154 1094.31 154 1023.82 154C953.333 154 882.843 154 812.353 154C741.863 154 670.137 154 599.647 154C529.157 154 458.667 154 388.177 154C317.687 154 247.197 154 175.47 154C104.98 154 34.49 154 -0.136669 154H-36L-36 117.867Z" fill="#9747FF"/>
</g>
<defs>
<filter id="filter0_d_438_111" x="-36" y="0" width="1538" height="156" filterUnits="userSpaceOnUse" color-interpolation-filters="sRGB">
<feFlood flood-opacity="0" result="BackgroundImageFix"/>
<feColorMatrix in="SourceAlpha" type="matrix" values="0 0 0 0 0 0 0 0 0 0 0 0 0 0 0 0 0 0 127 0" result="hardAlpha"/>
<feOffset dx="50" dy="-2"/>
<feGaussianBlur stdDeviation="2"/>
<feComposite in2="hardAlpha" operator="out"/>
<feColorMatrix type="matrix" values="0 0 0 0 0 0 0 0 0 0 0 0 0 0 0 0 0 0 0.25 0"/>
<feBlend mode="normal" in2="BackgroundImageFix" result="effect1_dropShadow_438_111"/>
<feBlend mode="normal" in="SourceGraphic" in2="effect1_dropShadow_438_111" result="shape"/>
</filter>
</defs>
</svg>
