<svg width="29" height="27" viewBox="0 0 29 27" fill="none" xmlns="http://www.w3.org/2000/svg">
<path d="M25.1562 0.46875H3.28125C2.41101 0.46875 1.57641 0.814452 0.961056 1.42981C0.345702 2.04516 0 2.87976 0 3.75V19.0625C0 19.9327 0.345702 20.7673 0.961056 21.3827C1.57641 21.998 2.41101 22.3438 3.28125 22.3438H13.125V24.5312H9.84375C9.55367 24.5312 9.27547 24.6465 9.07035 24.8516C8.86523 25.0567 8.75 25.3349 8.75 25.625C8.75 25.9151 8.86523 26.1933 9.07035 26.3984C9.27547 26.6035 9.55367 26.7188 9.84375 26.7188H18.5938C18.8838 26.7188 19.162 26.6035 19.3671 26.3984C19.5723 26.1933 19.6875 25.9151 19.6875 25.625C19.6875 25.3349 19.5723 25.0567 19.3671 24.8516C19.162 24.6465 18.8838 24.5312 18.5938 24.5312H15.3125V22.3438H25.1562C26.0265 22.3438 26.8611 21.998 27.4764 21.3827C28.0918 20.7673 28.4375 19.9327 28.4375 19.0625V3.75C28.4375 2.87976 28.0918 2.04516 27.4764 1.42981C26.8611 0.814452 26.0265 0.46875 25.1562 0.46875ZM3.28125 2.65625H25.1562C25.4463 2.65625 25.7245 2.77148 25.9296 2.9766C26.1348 3.18172 26.25 3.45992 26.25 3.75V14.6875H2.1875V3.75C2.1875 3.45992 2.30273 3.18172 2.50785 2.9766C2.71297 2.77148 2.99117 2.65625 3.28125 2.65625ZM25.1562 20.1562H3.28125C2.99117 20.1562 2.71297 20.041 2.50785 19.8359C2.30273 19.6308 2.1875 19.3526 2.1875 19.0625V16.875H26.25V19.0625C26.25 19.3526 26.1348 19.6308 25.9296 19.8359C25.7245 20.041 25.4463 20.1562 25.1562 20.1562Z" fill="white"/>
</svg>
