<svg width="29" height="25" viewBox="0 0 29 25" fill="none" xmlns="http://www.w3.org/2000/svg">
<path d="M26.25 0.46875H2.1875C1.60734 0.46875 1.05094 0.699218 0.640704 1.10945C0.230468 1.51969 0 2.07609 0 2.65625V22.3438C0 22.9239 0.230468 23.4803 0.640704 23.8905C1.05094 24.3008 1.60734 24.5312 2.1875 24.5312H26.25C26.8302 24.5312 27.3866 24.3008 27.7968 23.8905C28.207 23.4803 28.4375 22.9239 28.4375 22.3438V2.65625C28.4375 2.07609 28.207 1.51969 27.7968 1.10945C27.3866 0.699218 26.8302 0.46875 26.25 0.46875ZM26.25 22.3438H2.1875V2.65625H26.25V22.3438ZM7.65625 6.48438C7.65625 6.80886 7.56003 7.12606 7.37976 7.39586C7.19948 7.66566 6.94325 7.87594 6.64347 8.00011C6.34368 8.12429 6.0138 8.15678 5.69555 8.09348C5.3773 8.03017 5.08497 7.87392 4.85553 7.64447C4.62608 7.41503 4.46983 7.1227 4.40652 6.80445C4.34322 6.4862 4.37571 6.15632 4.49989 5.85653C4.62406 5.55675 4.83434 5.30052 5.10414 5.12024C5.37394 4.93997 5.69114 4.84375 6.01562 4.84375C6.45075 4.84375 6.86805 5.0166 7.17572 5.32428C7.4834 5.63195 7.65625 6.04925 7.65625 6.48438ZM13.125 6.48438C13.125 6.80886 13.0288 7.12606 12.8485 7.39586C12.6682 7.66566 12.412 7.87594 12.1122 8.00011C11.8124 8.12429 11.4826 8.15678 11.1643 8.09348C10.8461 8.03017 10.5537 7.87392 10.3243 7.64447C10.0948 7.41503 9.93858 7.1227 9.87527 6.80445C9.81197 6.4862 9.84446 6.15632 9.96863 5.85653C10.0928 5.55675 10.3031 5.30052 10.5729 5.12024C10.8427 4.93997 11.1599 4.84375 11.4844 4.84375C11.9195 4.84375 12.3368 5.0166 12.6445 5.32428C12.9521 5.63195 13.125 6.04925 13.125 6.48438Z" fill="white"/>
</svg>
