<svg width="29" height="29" viewBox="0 0 29 29" fill="none" xmlns="http://www.w3.org/2000/svg">
<path d="M14.3064 7.7439C13.0085 7.7439 11.7397 8.12878 10.6605 8.84988C9.58127 9.57098 8.74014 10.5959 8.24344 11.795C7.74674 12.9942 7.61678 14.3137 7.87 15.5867C8.12321 16.8597 8.74823 18.029 9.66601 18.9468C10.5838 19.8646 11.7531 20.4896 13.0261 20.7428C14.2991 20.996 15.6186 20.8661 16.8178 20.3694C18.0169 19.8727 19.0418 19.0315 19.7629 17.9523C20.484 16.8731 20.8689 15.6043 20.8689 14.3064C20.8671 12.5665 20.1751 10.8983 18.9448 9.66801C17.7145 8.43769 16.0463 7.74571 14.3064 7.7439ZM14.3064 18.6814C13.4411 18.6814 12.5952 18.4248 11.8758 17.9441C11.1563 17.4633 10.5956 16.7801 10.2644 15.9806C9.93329 15.1812 9.84665 14.3015 10.0155 13.4529C10.1843 12.6042 10.601 11.8247 11.2128 11.2128C11.8247 10.601 12.6042 10.1843 13.4529 10.0155C14.3015 9.84665 15.1812 9.93329 15.9806 10.2644C16.7801 10.5956 17.4633 11.1563 17.9441 11.8758C18.4248 12.5952 18.6814 13.4411 18.6814 14.3064C18.6814 15.4667 18.2205 16.5795 17.4 17.4C16.5795 18.2205 15.4667 18.6814 14.3064 18.6814ZM26.3376 14.6017C26.3431 14.4048 26.3431 14.208 26.3376 14.0111L28.3775 11.4626C28.4844 11.3288 28.5585 11.1718 28.5936 11.0041C28.6288 10.8365 28.6241 10.6629 28.5798 10.4974C28.2454 9.24042 27.7452 8.03354 27.0923 6.90855C27.0069 6.76132 26.8882 6.63609 26.7458 6.54281C26.6034 6.44953 26.4411 6.39078 26.272 6.37124L23.0291 6.0103C22.8942 5.86812 22.7574 5.7314 22.6189 5.60015L22.2361 2.34898C22.2164 2.17973 22.1574 2.01743 22.0639 1.87501C21.9704 1.73259 21.8449 1.61399 21.6974 1.52866C20.572 0.876989 19.3652 0.377265 18.1085 0.0425307C17.9429 -0.00149698 17.7693 -0.0060001 17.6017 0.0293842C17.434 0.0647685 17.277 0.13905 17.1433 0.246242L14.6017 2.27515C14.4048 2.27515 14.208 2.27515 14.0111 2.27515L11.4626 0.239406C11.3288 0.132448 11.1718 0.0584145 11.0041 0.0232686C10.8365 -0.0118773 10.6629 -0.00715283 10.4974 0.0370618C9.24063 0.37206 8.03382 0.872254 6.90855 1.52456C6.76132 1.61005 6.63609 1.72872 6.54281 1.87113C6.44953 2.01354 6.39078 2.17576 6.37124 2.34487L6.0103 5.59331C5.86812 5.72912 5.7314 5.86584 5.60015 6.00347L2.34898 6.37671C2.17973 6.3964 2.01743 6.45536 1.87501 6.54888C1.73259 6.6424 1.61399 6.76791 1.52866 6.91538C0.876989 8.0408 0.377265 9.24759 0.0425307 10.5042C-0.00149698 10.6699 -0.0060001 10.8435 0.0293842 11.0111C0.0647685 11.1788 0.13905 11.3358 0.246242 11.4695L2.27515 14.0111C2.27515 14.208 2.27515 14.4048 2.27515 14.6017L0.239406 17.1501C0.132448 17.284 0.0584145 17.441 0.0232686 17.6087C-0.0118773 17.7763 -0.00715283 17.9499 0.0370618 18.1154C0.371462 19.3724 0.871688 20.5793 1.52456 21.7043C1.61005 21.8515 1.72872 21.9767 1.87113 22.07C2.01354 22.1633 2.17576 22.222 2.34487 22.2416L5.58784 22.6025C5.72365 22.7447 5.86037 22.8814 5.998 23.0126L6.37671 26.2638C6.3964 26.4331 6.45536 26.5954 6.54888 26.7378C6.6424 26.8802 6.76791 26.9988 6.91538 27.0841C8.0408 27.7358 9.24759 28.2355 10.5042 28.5703C10.6699 28.6143 10.8435 28.6188 11.0111 28.5834C11.1788 28.548 11.3358 28.4737 11.4695 28.3666L14.0111 26.3376C14.208 26.3431 14.4048 26.3431 14.6017 26.3376L17.1501 28.3775C17.284 28.4844 17.441 28.5585 17.6087 28.5936C17.7763 28.6288 17.9499 28.6241 18.1154 28.5798C19.3724 28.2454 20.5793 27.7452 21.7043 27.0923C21.8515 27.0069 21.9767 26.8882 22.07 26.7458C22.1633 26.6034 22.222 26.4411 22.2416 26.272L22.6025 23.0291C22.7447 22.8942 22.8814 22.7574 23.0126 22.6189L26.2638 22.2361C26.4331 22.2164 26.5954 22.1574 26.7378 22.0639C26.8802 21.9704 26.9988 21.8449 27.0841 21.6974C27.7358 20.572 28.2355 19.3652 28.5703 18.1085C28.6143 17.9429 28.6188 17.7693 28.5834 17.6017C28.548 17.434 28.4737 17.277 28.3666 17.1433L26.3376 14.6017ZM24.1365 13.713C24.1597 14.1083 24.1597 14.5045 24.1365 14.8998C24.1202 15.1703 24.205 15.4373 24.3744 15.649L26.3144 18.073C26.0918 18.7805 25.8068 19.4668 25.4626 20.1238L22.3728 20.4738C22.1037 20.5037 21.8553 20.6323 21.6755 20.8347C21.4124 21.1307 21.1321 21.411 20.8361 21.6742C20.6336 21.8539 20.505 22.1024 20.4751 22.3714L20.132 25.4585C19.475 25.8028 18.7887 26.0879 18.0812 26.3103L15.6558 24.3703C15.4617 24.2152 15.2206 24.1308 14.9722 24.131H14.9066C14.5114 24.1542 14.1151 24.1542 13.7199 24.131C13.4493 24.1147 13.1823 24.1995 12.9707 24.3689L10.5398 26.3103C9.83232 26.0877 9.14603 25.8027 8.48901 25.4585L8.13902 22.3728C8.10915 22.1037 7.98054 21.8553 7.77808 21.6755C7.48209 21.4124 7.2018 21.1321 6.93862 20.8361C6.75888 20.6336 6.51044 20.505 6.24136 20.4751L3.15425 20.1306C2.80998 19.4737 2.52493 18.7874 2.30249 18.0798L4.24253 15.6544C4.41193 15.4428 4.49671 15.1758 4.48042 14.9052C4.45718 14.51 4.45718 14.1137 4.48042 13.7185C4.49671 13.4479 4.41193 13.1809 4.24253 12.9693L2.30249 10.5398C2.5251 9.83232 2.81014 9.14603 3.15425 8.48901L6.23999 8.13902C6.50907 8.10915 6.75752 7.98054 6.93726 7.77808C7.20043 7.48209 7.48073 7.2018 7.77671 6.93862C7.97998 6.75877 8.10911 6.50976 8.13902 6.23999L8.48218 3.15425C9.13912 2.80998 9.82543 2.52493 10.533 2.30249L12.9584 4.24253C13.17 4.41193 13.437 4.49671 13.7076 4.48042C14.1028 4.45718 14.4991 4.45718 14.8943 4.48042C15.1649 4.49671 15.4319 4.41193 15.6435 4.24253L18.073 2.30249C18.7805 2.5251 19.4668 2.81014 20.1238 3.15425L20.4738 6.23999C20.5037 6.50907 20.6323 6.75752 20.8347 6.93726C21.1307 7.20043 21.411 7.48073 21.6742 7.77671C21.8539 7.97917 22.1024 8.10778 22.3714 8.13765L25.4585 8.48081C25.8028 9.13775 26.0879 9.82406 26.3103 10.5316L24.3703 12.957C24.1992 13.1704 24.1144 13.4401 24.1324 13.713H24.1365Z" fill="white"/>
</svg>
