<svg width="30" height="28" viewBox="0 0 30 28" fill="none" xmlns="http://www.w3.org/2000/svg">
<path d="M29.5714 22.6784L17.8599 2.33889C17.5672 1.84058 17.1494 1.42741 16.6479 1.14032C16.1464 0.853236 15.5785 0.702209 15.0007 0.702209C14.4228 0.702209 13.8549 0.853236 13.3534 1.14032C12.8519 1.42741 12.4341 1.84058 12.1414 2.33889L0.429986 22.6784C0.148397 23.1604 0 23.7086 0 24.2668C0 24.825 0.148397 25.3732 0.429986 25.8552C0.718896 26.3565 1.13598 26.7719 1.63844 27.0588C2.14091 27.3457 2.71065 27.4938 3.28921 27.4877H26.7121C27.2902 27.4933 27.8594 27.345 28.3614 27.0581C28.8633 26.7713 29.28 26.3561 29.5687 25.8552C29.8507 25.3734 29.9995 24.8254 30 24.2672C30.0005 23.7089 29.8525 23.1606 29.5714 22.6784ZM27.7139 24.7824C27.6118 24.9566 27.4652 25.1005 27.2892 25.1993C27.1131 25.2982 26.914 25.3484 26.7121 25.3449H3.28921C3.08736 25.3484 2.88822 25.2982 2.71219 25.1993C2.53616 25.1005 2.38958 24.9566 2.28748 24.7824C2.195 24.6258 2.14622 24.4473 2.14622 24.2655C2.14622 24.0836 2.195 23.9051 2.28748 23.7485L13.9989 3.40897C14.1031 3.23563 14.2503 3.0922 14.4263 2.99262C14.6023 2.89304 14.8011 2.84071 15.0033 2.84071C15.2056 2.84071 15.4043 2.89304 15.5804 2.99262C15.7564 3.0922 15.9036 3.23563 16.0078 3.40897L27.7192 23.7485C27.8109 23.9056 27.8587 24.0843 27.8578 24.2662C27.8569 24.448 27.8071 24.6263 27.7139 24.7824ZM13.9293 16.7736V11.4165C13.9293 11.1323 14.0422 10.8598 14.2431 10.6589C14.444 10.4579 14.7165 10.3451 15.0007 10.3451C15.2848 10.3451 15.5573 10.4579 15.7582 10.6589C15.9592 10.8598 16.072 11.1323 16.072 11.4165V16.7736C16.072 17.0577 15.9592 17.3302 15.7582 17.5312C15.5573 17.7321 15.2848 17.845 15.0007 17.845C14.7165 17.845 14.444 17.7321 14.2431 17.5312C14.0422 17.3302 13.9293 17.0577 13.9293 16.7736ZM16.6077 21.5949C16.6077 21.9128 16.5135 22.2235 16.3369 22.4878C16.1603 22.7521 15.9093 22.9581 15.6157 23.0797C15.322 23.2014 14.9989 23.2332 14.6871 23.1712C14.3754 23.1092 14.0891 22.9561 13.8643 22.7314C13.6396 22.5066 13.4865 22.2202 13.4245 21.9085C13.3625 21.5967 13.3943 21.2736 13.5159 20.9799C13.6376 20.6863 13.8436 20.4353 14.1078 20.2587C14.3721 20.0821 14.6828 19.9878 15.0007 19.9878C15.4269 19.9878 15.8356 20.1571 16.137 20.4585C16.4384 20.7599 16.6077 21.1687 16.6077 21.5949Z" fill="#F5F5F5"/>
</svg>
