<svg width="29" height="29" viewBox="0 0 29 29" fill="none" xmlns="http://www.w3.org/2000/svg">
<path d="M27.8929 5.91767L27.256 5.55003C27.3307 5.15445 27.3307 4.74838 27.256 4.3528L27.8929 3.98516C28.1441 3.84017 28.3274 3.60134 28.4025 3.3212C28.4776 3.04105 28.4383 2.74255 28.2933 2.49136C28.1483 2.24017 27.9095 2.05686 27.6294 1.98177C27.3492 1.90667 27.0507 1.94593 26.7995 2.09092L26.1613 2.45993C25.8559 2.19787 25.5046 1.99447 25.1253 1.85995V1.12467C25.1253 0.834691 25.0101 0.556592 24.8051 0.351548C24.6001 0.146504 24.322 0.031311 24.032 0.031311C23.742 0.031311 23.4639 0.146504 23.2589 0.351548C23.0538 0.556592 22.9386 0.834691 22.9386 1.12467V1.85995C22.5593 1.99447 22.2081 2.19787 21.9027 2.45993L21.2644 2.09092C21.14 2.01913 21.0027 1.97254 20.8604 1.95381C20.718 1.93508 20.5733 1.94458 20.4346 1.98177C20.2959 2.01895 20.1658 2.08309 20.0519 2.17053C19.938 2.25797 19.8424 2.36698 19.7706 2.49136C19.6988 2.61574 19.6522 2.75304 19.6335 2.89542C19.6148 3.03781 19.6243 3.18248 19.6615 3.3212C19.6987 3.45991 19.7628 3.58994 19.8502 3.70386C19.9377 3.81778 20.0467 3.91337 20.1711 3.98516L20.8079 4.3528C20.7332 4.74838 20.7332 5.15445 20.8079 5.55003L20.1711 5.91767C19.9625 6.03796 19.7995 6.22372 19.7073 6.44614C19.6151 6.66855 19.5989 6.91517 19.6612 7.14774C19.7235 7.3803 19.8608 7.58579 20.0519 7.73232C20.2429 7.87886 20.477 7.95824 20.7177 7.95814C20.9097 7.95874 21.0984 7.90827 21.2644 7.81191L21.9027 7.4429C22.2081 7.70495 22.5593 7.90836 22.9386 8.04288V8.77816C22.9386 9.06814 23.0538 9.34624 23.2589 9.55128C23.4639 9.75632 23.742 9.87152 24.032 9.87152C24.322 9.87152 24.6001 9.75632 24.8051 9.55128C25.0101 9.34624 25.1253 9.06814 25.1253 8.77816V8.04288C25.5046 7.90836 25.8559 7.70495 26.1613 7.4429L26.7995 7.81191C26.9656 7.90827 27.1542 7.95874 27.3462 7.95814C27.587 7.95824 27.821 7.87886 28.0121 7.73232C28.2031 7.58579 28.3404 7.3803 28.4028 7.14774C28.4651 6.91517 28.4489 6.66855 28.3567 6.44614C28.2645 6.22372 28.1015 6.03796 27.8929 5.91767ZM22.9386 4.95141C22.9386 4.73517 23.0027 4.52378 23.1229 4.34398C23.243 4.16418 23.4138 4.02404 23.6136 3.94128C23.8134 3.85853 24.0332 3.83688 24.2453 3.87907C24.4574 3.92125 24.6522 4.02539 24.8051 4.17829C24.958 4.3312 25.0621 4.52602 25.1043 4.73811C25.1465 4.9502 25.1249 5.17004 25.0421 5.36982C24.9594 5.56961 24.8192 5.74037 24.6394 5.86051C24.4596 5.98065 24.2482 6.04477 24.032 6.04477C23.742 6.04477 23.4639 5.92958 23.2589 5.72453C23.0538 5.51949 22.9386 5.24139 22.9386 4.95141ZM26.9499 11.5266C26.6639 11.5744 26.4086 11.7339 26.2402 11.97C26.0719 12.206 26.0041 12.4993 26.052 12.7853C26.163 13.4483 26.2187 14.1194 26.2187 14.7916C26.2213 17.7357 25.1392 20.5776 23.1792 22.7745C21.9598 21.0075 20.2451 19.6404 18.2509 18.8452C19.3221 18.0015 20.1038 16.8449 20.4872 15.5363C20.8707 14.2277 20.8368 12.8322 20.3903 11.5437C19.9438 10.2553 19.1069 9.13799 17.996 8.34723C16.8851 7.55646 15.5554 7.13154 14.1918 7.13154C12.8282 7.13154 11.4984 7.55646 10.3875 8.34723C9.27662 9.13799 8.43973 10.2553 7.99325 11.5437C7.54677 12.8322 7.51289 14.2277 7.89633 15.5363C8.27977 16.8449 9.06146 18.0015 10.1327 18.8452C8.13844 19.6404 6.4238 21.0075 5.20439 22.7745C3.66647 21.0415 2.66189 18.9011 2.31143 16.6107C1.96097 14.3204 2.27956 11.9776 3.22888 9.86395C4.17821 7.75035 5.71785 5.95595 7.66269 4.69653C9.60753 3.43711 11.8748 2.76628 14.1918 2.7647C14.864 2.76459 15.5351 2.82036 16.1981 2.93144C16.4828 2.97636 16.7737 2.90705 17.0076 2.73858C17.2414 2.57012 17.3993 2.31612 17.4469 2.03185C17.4944 1.74759 17.4278 1.45604 17.2615 1.22062C17.0952 0.985213 16.8427 0.824985 16.5589 0.774793C13.5897 0.275287 10.5385 0.732336 7.84599 2.07995C5.15345 3.42757 2.95886 5.59601 1.57907 8.27221C0.199286 10.9484 -0.294297 13.9938 0.169589 16.9688C0.633476 19.9438 2.03083 22.6944 4.15989 24.8235C6.28895 26.9526 9.03955 28.3499 12.0146 28.8138C14.9895 29.2777 18.035 28.7841 20.7112 27.4043C23.3874 26.0245 25.5558 23.8299 26.9034 21.1374C28.2511 18.4449 28.7081 15.3937 28.2086 12.4245C28.1607 12.1385 28.0012 11.8833 27.7652 11.7149C27.5291 11.5465 27.2359 11.4788 26.9499 11.5266ZM9.81835 13.6983C9.81835 12.8333 10.0749 11.9877 10.5554 11.2685C11.036 10.5493 11.719 9.98876 12.5181 9.65774C13.3173 9.32673 14.1966 9.24012 15.045 9.40887C15.8934 9.57762 16.6726 9.99415 17.2843 10.6058C17.8959 11.2174 18.3124 11.9967 18.4812 12.845C18.6499 13.6934 18.5633 14.5728 18.2323 15.3719C17.9013 16.171 17.3407 16.8541 16.6215 17.3346C15.9023 17.8152 15.0568 18.0717 14.1918 18.0717C13.0319 18.0717 11.9195 17.6109 11.0993 16.7907C10.2791 15.9706 9.81835 14.8582 9.81835 13.6983ZM6.82256 24.2901C7.61351 23.0531 8.70314 22.0351 9.991 21.33C11.2789 20.6248 12.7235 20.2552 14.1918 20.2552C15.6601 20.2552 17.1047 20.6248 18.3926 21.33C19.6804 22.0351 20.77 23.0531 21.561 24.2901C19.454 25.9288 16.861 26.8184 14.1918 26.8184C11.5226 26.8184 8.92954 25.9288 6.82256 24.2901Z" fill="#F5F5F5"/>
</svg>
