<svg width="60" height="60" viewBox="0 0 60 60" fill="none" xmlns="http://www.w3.org/2000/svg">
<path d="M57.5 32.5H32.5C31.837 32.5 31.2011 32.7634 30.7322 33.2323C30.2634 33.7011 30 34.337 30 35V52.9531C29.9994 53.5392 30.2046 54.1068 30.5798 54.5569C30.9551 55.0069 31.4766 55.3109 32.0531 55.4157L57.0531 59.9594C57.2005 59.987 57.3501 60.0006 57.5 60C58.163 60 58.7989 59.7366 59.2678 59.2678C59.7366 58.799 60 58.1631 60 57.5V35C60 34.337 59.7366 33.7011 59.2678 33.2323C58.7989 32.7634 58.163 32.5 57.5 32.5ZM55 54.5032L35 50.8688V37.5H55V54.5032ZM22.5 32.5H2.5C1.83696 32.5 1.20107 32.7634 0.732234 33.2323C0.263393 33.7011 0 34.337 0 35V47.5C8.46162e-05 48.0855 0.205647 48.6524 0.580847 49.1018C0.956048 49.5512 1.47709 49.8547 2.05312 49.9594L22.0531 53.5969C22.2007 53.623 22.3502 53.6366 22.5 53.6375C23.163 53.6375 23.7989 53.3741 24.2678 52.9053C24.7366 52.4365 25 51.8006 25 51.1375V35C25 34.337 24.7366 33.7011 24.2678 33.2323C23.7989 32.7634 23.163 32.5 22.5 32.5ZM20 48.1407L5 45.4125V37.5H20V48.1407ZM59.1031 0.581273C58.8219 0.346456 58.4925 0.176315 58.1383 0.082892C57.784 -0.0105308 57.4136 -0.024952 57.0531 0.0406478L32.0531 4.58752C31.4771 4.69217 30.956 4.99568 30.5808 5.44512C30.2056 5.89456 30.0001 6.46143 30 7.0469V25C30 25.6631 30.2634 26.2989 30.7322 26.7678C31.2011 27.2366 31.837 27.5 32.5 27.5H57.5C58.163 27.5 58.7989 27.2366 59.2678 26.7678C59.7366 26.2989 60 25.6631 60 25V2.50002C60.0001 2.13405 59.9198 1.77252 59.7648 1.44098C59.6098 1.10943 59.384 0.815955 59.1031 0.581273ZM55 22.5H35V9.13127L55 5.4969V22.5ZM24.1031 6.94377C23.8219 6.70896 23.4925 6.53881 23.1383 6.44539C22.784 6.35197 22.4136 6.33755 22.0531 6.40315L2.05312 10.0406C1.47709 10.1453 0.956048 10.4488 0.580847 10.8982C0.205647 11.3477 8.46162e-05 11.9146 0 12.5V25C0 25.6631 0.263393 26.2989 0.732234 26.7678C1.20107 27.2366 1.83696 27.5 2.5 27.5H22.5C23.163 27.5 23.7989 27.2366 24.2678 26.7678C24.7366 26.2989 25 25.6631 25 25V8.86252C25.0001 8.49655 24.9198 8.13502 24.7648 7.80348C24.6098 7.47193 24.3839 7.17845 24.1031 6.94377ZM20 22.5H5V14.5875L20 11.875V22.5Z" fill="url(#paint0_linear_595_179)"/>
<defs>
<linearGradient id="paint0_linear_595_179" x1="19" y1="6.5" x2="34.5" y2="65" gradientUnits="userSpaceOnUse">
<stop stop-color="#9747FF"/>
<stop offset="1" stop-color="#6D499D"/>
</linearGradient>
</defs>
</svg>
