<svg width="24" height="21" viewBox="0 0 24 21" fill="none" xmlns="http://www.w3.org/2000/svg">
<path d="M22.9261 16.7346L14.0444 1.31028C13.8225 0.932394 13.5057 0.619068 13.1253 0.40136C12.745 0.183652 12.3143 0.0691223 11.8761 0.0691223C11.4378 0.0691223 11.0072 0.183652 10.6269 0.40136C10.2465 0.619068 9.92967 0.932394 9.70773 1.31028L0.82609 16.7346C0.61254 17.1001 0.5 17.5158 0.5 17.9391C0.5 18.3624 0.61254 18.7781 0.82609 19.1436C1.04519 19.5238 1.3615 19.8388 1.74255 20.0564C2.1236 20.274 2.55568 20.3862 2.99445 20.3817H20.7577C21.1962 20.3859 21.6278 20.2734 22.0085 20.0559C22.3891 19.8384 22.7051 19.5235 22.9241 19.1436C23.1379 18.7783 23.2508 18.3627 23.2512 17.9394C23.2515 17.5161 23.1393 17.1003 22.9261 16.7346ZM21.5174 18.3301C21.44 18.4622 21.3288 18.5713 21.1953 18.6463C21.0618 18.7212 20.9108 18.7593 20.7577 18.7567H2.99445C2.84137 18.7593 2.69034 18.7212 2.55685 18.6463C2.42335 18.5713 2.31219 18.4622 2.23476 18.3301C2.16463 18.2114 2.12763 18.076 2.12763 17.9381C2.12763 17.8002 2.16463 17.6648 2.23476 17.5461L11.1164 2.12177C11.1954 1.99032 11.3071 1.88155 11.4405 1.80603C11.574 1.73052 11.7248 1.69083 11.8781 1.69083C12.0315 1.69083 12.1822 1.73052 12.3157 1.80603C12.4492 1.88155 12.5608 1.99032 12.6398 2.12177L21.5215 17.5461C21.591 17.6652 21.6273 17.8007 21.6266 17.9387C21.6259 18.0766 21.5882 18.2117 21.5174 18.3301ZM11.0636 12.2567V8.19419C11.0636 7.9787 11.1492 7.77204 11.3016 7.61966C11.4539 7.46729 11.6606 7.38169 11.8761 7.38169C12.0916 7.38169 12.2982 7.46729 12.4506 7.61966C12.603 7.77204 12.6886 7.9787 12.6886 8.19419V12.2567C12.6886 12.4722 12.603 12.6788 12.4506 12.8312C12.2982 12.9836 12.0916 13.0692 11.8761 13.0692C11.6606 13.0692 11.4539 12.9836 11.3016 12.8312C11.1492 12.6788 11.0636 12.4722 11.0636 12.2567ZM13.0948 15.9129C13.0948 16.154 13.0234 16.3896 12.8894 16.59C12.7555 16.7905 12.5652 16.9467 12.3425 17.0389C12.1198 17.1312 11.8747 17.1553 11.6383 17.1083C11.4019 17.0612 11.1847 16.9452 11.0143 16.7747C10.8439 16.6043 10.7278 16.3871 10.6808 16.1507C10.6337 15.9143 10.6579 15.6692 10.7501 15.4465C10.8424 15.2238 10.9986 15.0335 11.199 14.8996C11.3994 14.7657 11.635 14.6942 11.8761 14.6942C12.1993 14.6942 12.5093 14.8226 12.7379 15.0512C12.9664 15.2797 13.0948 15.5897 13.0948 15.9129Z" fill="#F05D5E"/>
</svg>
