<svg width="24" height="21" viewBox="0 0 24 21" fill="none" xmlns="http://www.w3.org/2000/svg">
<path d="M22.6771 16.7346L13.7954 1.31028C13.5735 0.932394 13.2566 0.619068 12.8763 0.40136C12.4959 0.183652 12.0653 0.0691223 11.6271 0.0691223C11.1888 0.0691223 10.7582 0.183652 10.3778 0.40136C9.9975 0.619068 9.68065 0.932394 9.45871 1.31028L0.577066 16.7346C0.363517 17.1001 0.250977 17.5158 0.250977 17.9391C0.250977 18.3624 0.363517 18.7781 0.577066 19.1436C0.796167 19.5238 1.11247 19.8388 1.49353 20.0564C1.87458 20.274 2.30666 20.3862 2.74543 20.3817H20.5087C20.9471 20.3859 21.3788 20.2734 21.7595 20.0559C22.1401 19.8384 22.4561 19.5235 22.675 19.1436C22.8889 18.7783 23.0018 18.3627 23.0021 17.9394C23.0025 17.5161 22.8903 17.1003 22.6771 16.7346ZM21.2684 18.3301C21.191 18.4622 21.0798 18.5713 20.9463 18.6463C20.8128 18.7212 20.6618 18.7593 20.5087 18.7567H2.74543C2.59235 18.7593 2.44132 18.7212 2.30782 18.6463C2.17433 18.5713 2.06317 18.4622 1.98574 18.3301C1.9156 18.2114 1.87861 18.076 1.87861 17.9381C1.87861 17.8002 1.9156 17.6648 1.98574 17.5461L10.8674 2.12177C10.9464 1.99032 11.058 1.88155 11.1915 1.80603C11.325 1.73052 11.4757 1.69083 11.6291 1.69083C11.7825 1.69083 11.9332 1.73052 12.0667 1.80603C12.2002 1.88155 12.3118 1.99032 12.3908 2.12177L21.2725 17.5461C21.342 17.6652 21.3783 17.8007 21.3776 17.9387C21.3768 18.0766 21.3391 18.2117 21.2684 18.3301ZM10.8146 12.2567V8.19419C10.8146 7.9787 10.9002 7.77204 11.0525 7.61966C11.2049 7.46729 11.4116 7.38169 11.6271 7.38169C11.8426 7.38169 12.0492 7.46729 12.2016 7.61966C12.354 7.77204 12.4396 7.9787 12.4396 8.19419V12.2567C12.4396 12.4722 12.354 12.6788 12.2016 12.8312C12.0492 12.9836 11.8426 13.0692 11.6271 13.0692C11.4116 13.0692 11.2049 12.9836 11.0525 12.8312C10.9002 12.6788 10.8146 12.4722 10.8146 12.2567ZM12.8458 15.9129C12.8458 16.154 12.7743 16.3896 12.6404 16.59C12.5065 16.7905 12.3162 16.9467 12.0935 17.0389C11.8708 17.1312 11.6257 17.1553 11.3893 17.1083C11.1529 17.0612 10.9357 16.9452 10.7653 16.7747C10.5948 16.6043 10.4788 16.3871 10.4317 16.1507C10.3847 15.9143 10.4088 15.6692 10.5011 15.4465C10.5933 15.2238 10.7495 15.0335 10.95 14.8996C11.1504 14.7657 11.386 14.6942 11.6271 14.6942C11.9503 14.6942 12.2603 14.8226 12.4889 15.0512C12.7174 15.2797 12.8458 15.5897 12.8458 15.9129Z" fill="#868686"/>
</svg>
