<svg width="35" height="36" viewBox="0 0 35 36" fill="none" xmlns="http://www.w3.org/2000/svg">
<rect x="0.300781" width="34.1538" height="36" rx="4" fill="#F05D5E"/>
<path d="M27.5316 9.69231H22.9162V8.76923C22.9162 8.03479 22.6244 7.33042 22.1051 6.81109C21.5857 6.29176 20.8814 6 20.1469 6H14.6085C13.874 6 13.1697 6.29176 12.6503 6.81109C12.131 7.33042 11.8392 8.03479 11.8392 8.76923V9.69231H7.22386C6.97904 9.69231 6.74425 9.78956 6.57114 9.96267C6.39803 10.1358 6.30078 10.3706 6.30078 10.6154C6.30078 10.8602 6.39803 11.095 6.57114 11.2681C6.74425 11.4412 6.97904 11.5385 7.22386 11.5385H8.14694V28.1538C8.14694 28.6435 8.34144 29.1131 8.68766 29.4593C9.03388 29.8055 9.50346 30 9.99309 30H24.7623C25.252 30 25.7215 29.8055 26.0677 29.4593C26.414 29.1131 26.6085 28.6435 26.6085 28.1538V11.5385H27.5316C27.7764 11.5385 28.0112 11.4412 28.1843 11.2681C28.3574 11.095 28.4546 10.8602 28.4546 10.6154C28.4546 10.3706 28.3574 10.1358 28.1843 9.96267C28.0112 9.78956 27.7764 9.69231 27.5316 9.69231ZM13.6854 8.76923C13.6854 8.52442 13.7826 8.28963 13.9558 8.11652C14.1289 7.94341 14.3637 7.84615 14.6085 7.84615H20.1469C20.3918 7.84615 20.6265 7.94341 20.7997 8.11652C20.9728 8.28963 21.07 8.52442 21.07 8.76923V9.69231H13.6854V8.76923ZM24.7623 28.1538H9.99309V11.5385H24.7623V28.1538ZM15.5316 16.1538V23.5385C15.5316 23.7833 15.4343 24.0181 15.2612 24.1912C15.0881 24.3643 14.8533 24.4615 14.6085 24.4615C14.3637 24.4615 14.1289 24.3643 13.9558 24.1912C13.7826 24.0181 13.6854 23.7833 13.6854 23.5385V16.1538C13.6854 15.909 13.7826 15.6742 13.9558 15.5011C14.1289 15.328 14.3637 15.2308 14.6085 15.2308C14.8533 15.2308 15.0881 15.328 15.2612 15.5011C15.4343 15.6742 15.5316 15.909 15.5316 16.1538ZM21.07 16.1538V23.5385C21.07 23.7833 20.9728 24.0181 20.7997 24.1912C20.6265 24.3643 20.3918 24.4615 20.1469 24.4615C19.9021 24.4615 19.6673 24.3643 19.4942 24.1912C19.3211 24.0181 19.2239 23.7833 19.2239 23.5385V16.1538C19.2239 15.909 19.3211 15.6742 19.4942 15.5011C19.6673 15.328 19.9021 15.2308 20.1469 15.2308C20.3918 15.2308 20.6265 15.328 20.7997 15.5011C20.9728 15.6742 21.07 15.909 21.07 16.1538Z" fill="#F5F5F5"/>
</svg>
