<svg width="37" height="36" viewBox="0 0 37 36" fill="none" xmlns="http://www.w3.org/2000/svg">
<rect x="0.301758" width="35.9988" height="36" rx="4" fill="#53C17F"/>
<path d="M29.7381 11.9251L24.3767 6.56249C24.1984 6.38416 23.9867 6.2427 23.7538 6.14619C23.5208 6.04967 23.2711 6 23.0189 6C22.7668 6 22.5171 6.04967 22.2841 6.14619C22.0511 6.2427 21.8395 6.38416 21.6612 6.56249L6.86455 21.3603C6.68549 21.538 6.54353 21.7494 6.44691 21.9824C6.3503 22.2154 6.30096 22.4652 6.30177 22.7175V28.0801C6.30177 28.5893 6.50404 29.0776 6.8641 29.4377C7.22416 29.7977 7.7125 30 8.22169 30H13.5843C13.8365 30.0008 14.0864 29.9515 14.3194 29.8548C14.5523 29.7582 14.7638 29.6163 14.9414 29.4372L29.7381 14.6406C29.9164 14.4623 30.0579 14.2506 30.1544 14.0177C30.2509 13.7847 30.3006 13.535 30.3006 13.2828C30.3006 13.0307 30.2509 12.781 30.1544 12.548C30.0579 12.315 29.9164 12.1034 29.7381 11.9251ZM13.5843 28.0801H8.22169V22.7175L18.7813 12.1579L24.1439 17.5205L13.5843 28.0801ZM25.501 16.1621L20.1384 10.8007L23.0183 7.92084L28.3809 13.2822L25.501 16.1621Z" fill="#F5F5F5"/>
</svg>
