<svg width="37" height="36" viewBox="0 0 37 36" fill="none" xmlns="http://www.w3.org/2000/svg">
<rect x="0.301758" width="36" height="36" rx="4" fill="#439CDD"/>
<path d="M18.3018 6C15.9284 6 13.6083 6.70379 11.6349 8.02236C9.66153 9.34094 8.12346 11.2151 7.21521 13.4078C6.30696 15.6005 6.06932 18.0133 6.53234 20.3411C6.99536 22.6689 8.13825 24.807 9.81648 26.4853C11.4947 28.1635 13.6329 29.3064 15.9607 29.7694C18.2884 30.2324 20.7012 29.9948 22.894 29.0865C25.0867 28.1783 26.9608 26.6402 28.2794 24.6668C29.598 22.6934 30.3018 20.3734 30.3018 18C30.2984 14.8184 29.033 11.7681 26.7833 9.51843C24.5336 7.26872 21.4833 6.00336 18.3018 6ZM18.3018 28.1538C16.2935 28.1538 14.3304 27.5583 12.6606 26.4426C10.9908 25.3269 9.68935 23.7411 8.92083 21.8857C8.15231 20.0303 7.95123 17.9887 8.34302 16.0191C8.73481 14.0494 9.70187 12.2402 11.1219 10.8201C12.5419 9.40011 14.3512 8.43305 16.3208 8.04126C18.2905 7.64947 20.3321 7.85055 22.1875 8.61907C24.0428 9.38759 25.6287 10.689 26.7444 12.3588C27.8601 14.0286 28.4556 15.9918 28.4556 18C28.4526 20.692 27.3818 23.2729 25.4782 25.1765C23.5747 27.08 20.9938 28.1508 18.3018 28.1538ZM20.1479 23.5385C20.1479 23.7833 20.0507 24.0181 19.8776 24.1912C19.7044 24.3643 19.4697 24.4615 19.2248 24.4615C18.7352 24.4615 18.2656 24.267 17.9194 23.9208C17.5732 23.5746 17.3787 23.105 17.3787 22.6154V18C17.1339 18 16.8991 17.9027 16.726 17.7296C16.5529 17.5565 16.4556 17.3217 16.4556 17.0769C16.4556 16.8321 16.5529 16.5973 16.726 16.4242C16.8991 16.2511 17.1339 16.1538 17.3787 16.1538C17.8683 16.1538 18.3379 16.3483 18.6841 16.6946C19.0303 17.0408 19.2248 17.5104 19.2248 18V22.6154C19.4697 22.6154 19.7044 22.7126 19.8776 22.8857C20.0507 23.0589 20.1479 23.2936 20.1479 23.5385ZM16.4556 12.9231C16.4556 12.6492 16.5368 12.3815 16.689 12.1538C16.8411 11.9261 17.0573 11.7487 17.3104 11.6439C17.5634 11.5391 17.8418 11.5116 18.1103 11.5651C18.3789 11.6185 18.6257 11.7504 18.8193 11.944C19.0129 12.1376 19.1448 12.3844 19.1982 12.653C19.2517 12.9215 19.2242 13.1999 19.1194 13.4529C19.0146 13.706 18.8372 13.9222 18.6095 14.0743C18.3818 14.2265 18.1141 14.3077 17.8402 14.3077C17.473 14.3077 17.1208 14.1618 16.8612 13.9021C16.6015 13.6425 16.4556 13.2903 16.4556 12.9231Z" fill="#F5F5F5"/>
</svg>
