<svg width="102" height="102" viewBox="0 0 102 102" fill="none" xmlns="http://www.w3.org/2000/svg">
<path d="M97.4062 54.954H55.2188C54.0999 54.954 53.0268 55.3985 52.2356 56.1897C51.4445 56.9808 51 58.0539 51 59.1728V89.4687C50.9989 90.4576 51.3452 91.4154 51.9785 92.1749C52.6117 92.9345 53.4917 93.4474 54.4647 93.6242L96.6522 101.292C96.9008 101.338 97.1533 101.361 97.4062 101.36C98.5251 101.36 99.5982 100.916 100.389 100.125C101.181 99.3335 101.625 98.2604 101.625 97.1415V59.1728C101.625 58.0539 101.181 56.9808 100.389 56.1897C99.5982 55.3985 98.5251 54.954 97.4062 54.954ZM93.1875 92.0843L59.4375 85.9513V63.3915H93.1875V92.0843ZM38.3438 54.954H4.59375C3.47487 54.954 2.40181 55.3985 1.61064 56.1897C0.819475 56.9808 0.375 58.0539 0.375 59.1728V80.2665C0.375143 81.2545 0.722029 82.2111 1.35518 82.9695C1.98833 83.728 2.86758 84.2401 3.83965 84.4167L37.5896 90.555C37.8386 90.599 38.0909 90.6219 38.3438 90.6236C39.4626 90.6236 40.5357 90.1791 41.3269 89.3879C42.118 88.5968 42.5625 87.5237 42.5625 86.4048V59.1728C42.5625 58.0539 42.118 56.9808 41.3269 56.1897C40.5357 55.3985 39.4626 54.954 38.3438 54.954ZM34.125 81.3476L8.8125 76.7439V63.3915H34.125V81.3476ZM100.112 1.09114C99.637 0.694888 99.0811 0.407776 98.4833 0.250125C97.8855 0.092474 97.2604 0.0681382 96.6522 0.178838L54.4647 7.85169C53.4926 8.02829 52.6133 8.54045 51.9802 9.29888C51.347 10.0573 51.0001 11.0139 51 12.0019V42.2978C51 43.4167 51.4445 44.4897 52.2356 45.2809C53.0268 46.0721 54.0999 46.5165 55.2188 46.5165H97.4062C98.5251 46.5165 99.5982 46.0721 100.389 45.2809C101.181 44.4897 101.625 43.4167 101.625 42.2978V4.32903C101.625 3.71145 101.49 3.10137 101.228 2.54189C100.967 1.98241 100.585 1.48717 100.112 1.09114ZM93.1875 38.079H59.4375V15.5193L93.1875 9.38626V38.079ZM41.049 11.8279C40.5745 11.4316 40.0186 11.1445 39.4208 10.9868C38.823 10.8292 38.1979 10.8049 37.5896 10.9156L3.83965 17.0538C2.86758 17.2304 1.98833 17.7426 1.35518 18.501C0.722029 19.2595 0.375143 20.2161 0.375 21.204V42.2978C0.375 43.4167 0.819475 44.4897 1.61064 45.2809C2.40181 46.0721 3.47487 46.5165 4.59375 46.5165H38.3438C39.4626 46.5165 40.5357 46.0721 41.3269 45.2809C42.118 44.4897 42.5625 43.4167 42.5625 42.2978V15.0658C42.5626 14.4482 42.4271 13.8381 42.1656 13.2786C41.9041 12.7191 41.5229 12.2239 41.049 11.8279ZM34.125 38.079H8.8125V24.7267L34.125 20.1493V38.079Z" fill="#4E2F78"/>
</svg>
